<svg width="167" height="118" viewBox="0 0 167 118" fill="none" xmlns="http://www.w3.org/2000/svg">
<path fill-rule="evenodd" clip-rule="evenodd" d="M160 24.1074C163.866 24.1074 167 27.2414 167 31.1074C167 34.9734 163.866 38.1074 160 38.1074H120C123.866 38.1074 127 41.2414 127 45.1074C127 48.9734 123.866 52.1074 120 52.1074H142C145.866 52.1074 149 55.2414 149 59.1074C149 62.9734 145.866 66.1074 142 66.1074H131.826C126.952 66.1074 123 69.2414 123 73.1074C123 75.6847 125 78.0181 129 80.1074C132.866 80.1074 136 83.2414 136 87.1074C136 90.9734 132.866 94.1074 129 94.1074H46C42.134 94.1074 39 90.9734 39 87.1074C39 83.2414 42.134 80.1074 46 80.1074H7C3.13401 80.1074 0 76.9734 0 73.1074C0 69.2414 3.13401 66.1074 7 66.1074H47C50.866 66.1074 54 62.9734 54 59.1074C54 55.2414 50.866 52.1074 47 52.1074H22C18.134 52.1074 15 48.9734 15 45.1074C15 41.2414 18.134 38.1074 22 38.1074H62C58.134 38.1074 55 34.9734 55 31.1074C55 27.2414 58.134 24.1074 62 24.1074H160ZM160 52.1074C163.866 52.1074 167 55.2414 167 59.1074C167 62.9734 163.866 66.1074 160 66.1074C156.134 66.1074 153 62.9734 153 59.1074C153 55.2414 156.134 52.1074 160 52.1074Z" fill="white"/>
<path fill-rule="evenodd" clip-rule="evenodd" d="M25.7707 53.1074H24.8228C18.7592 53.1074 13.8438 48.1991 13.8438 42.1445C13.8438 36.0898 18.7592 31.1815 24.8228 31.1815C24.8619 31.1815 24.901 31.1817 24.9401 31.1821C25.9161 22.6905 32.8646 16.1074 41.2914 16.1074C50.1731 16.1074 57.4127 23.4206 57.7478 32.5736C63.1182 32.9202 67.8438 38.147 67.8438 43.5971C67.8438 48.0721 64.5297 53.1074 60.6036 53.1074H33.302" fill="white"/>
<path d="M25.7707 53.1074H24.8228C18.7592 53.1074 13.8438 48.1991 13.8438 42.1445C13.8438 36.0898 18.7592 31.1815 24.8228 31.1815C24.8619 31.1815 24.901 31.1817 24.9401 31.1821C25.9161 22.6905 32.8646 16.1074 41.2914 16.1074C50.1731 16.1074 57.4127 23.4206 57.7478 32.5736C63.1182 32.9202 67.8438 38.147 67.8438 43.5971C67.8438 48.0721 64.5297 53.1074 60.6036 53.1074H33.302" stroke="#D9F0FF" stroke-width="2.5" stroke-linecap="round"/>
<path d="M83 7.35742C101.618 7.35742 116.75 22.7419 116.75 41.7686C116.75 47.6293 114.289 55.2739 109.169 64.7705C104.064 74.2406 96.3821 85.431 86.0996 98.3486C85.924 98.5693 85.7265 98.7709 85.5107 98.9492C83.8015 100.362 81.2942 100.1 79.9004 98.3486C69.6179 85.431 61.9364 74.2406 56.8311 64.7705C51.7115 55.2739 49.2501 47.6293 49.25 41.7686C49.25 22.7419 64.3823 7.35742 83 7.35742Z" fill="white" stroke="#026ACC" stroke-width="2.5"/>
<path d="M95.2678 13.8184C105.7 18.666 113 29.5073 113 42.1719C113 47.2942 110.854 54.2956 106.036 63.3594C101.257 72.3507 94.0258 83.0478 84.2756 95.4707C84.2006 95.5663 84.117 95.6527 84.0266 95.7285C83.3291 96.3131 82.3107 96.2169 81.7249 95.4707C71.9746 83.0477 64.7425 72.3508 59.9631 63.3594C58.8398 61.246 57.8631 59.244 57.0237 57.3525C61.2304 55.5046 65.2154 53.2455 68.929 50.627C71.7166 55.5806 76.9739 58.9199 83.0002 58.9199C91.9417 58.9198 99.1904 51.5685 99.1907 42.5C99.1907 35.8148 95.2515 30.0619 89.5989 27.5C91.9578 23.1991 93.8682 18.6178 95.2678 13.8184Z" fill="#D9F0FF"/>
<path d="M65.9212 97.3379C66.6008 97.2162 67.053 96.5667 66.9314 95.8871C66.8097 95.2076 66.1602 94.7553 65.4806 94.877L65.7009 96.1074L65.9212 97.3379ZM58.5078 96.5078C57.8464 96.7057 57.4708 97.4023 57.6687 98.0637C57.8667 98.7251 58.5633 99.1007 59.2246 98.9028L58.8662 97.7053L58.5078 96.5078ZM55.2056 100.342C55.8397 100.069 56.1324 99.3333 55.8594 98.6992C55.5864 98.0651 54.851 97.7724 54.217 98.0454L54.7113 99.1935L55.2056 100.342ZM101.047 94.9734C100.369 94.847 99.716 95.2947 99.5896 95.9734C99.4631 96.6521 99.9109 97.3047 100.59 97.4311L100.818 96.2023L101.047 94.9734ZM65.7009 96.1074L65.4806 94.877C62.9568 95.3288 60.6159 95.8768 58.5078 96.5078L58.8662 97.7053L59.2246 98.9028C61.229 98.3029 63.4764 97.7756 65.9212 97.3379L65.7009 96.1074ZM54.7113 99.1935L54.217 98.0454C52.0329 98.9858 50.2097 100.07 48.9133 101.299C47.6152 102.528 46.75 103.999 46.75 105.672H48H49.25C49.25 104.923 49.6302 104.063 50.6326 103.113C51.6367 102.162 53.1692 101.218 55.2056 100.342L54.7113 99.1935ZM48 105.672H46.75C46.75 107.77 48.1011 109.542 50.0049 110.957C51.9322 112.389 54.6412 113.626 57.8765 114.643C64.3617 116.681 73.244 117.922 83 117.922V116.672V115.422C73.426 115.422 64.8083 114.201 58.626 112.258C55.5275 111.284 53.111 110.15 51.496 108.95C49.8576 107.733 49.25 106.611 49.25 105.672H48ZM83 116.672V117.922C92.756 117.922 101.638 116.681 108.124 114.643C111.359 113.626 114.068 112.389 115.995 110.957C117.899 109.542 119.25 107.77 119.25 105.672H118H116.75C116.75 106.611 116.142 107.733 114.504 108.95C112.889 110.15 110.472 111.284 107.374 112.258C101.192 114.201 92.574 115.422 83 115.422V116.672ZM118 105.672H119.25C119.25 102.905 116.925 100.699 113.86 99.0443C110.693 97.3349 106.258 95.9438 101.047 94.9734L100.818 96.2023L100.59 97.4311C105.665 98.3765 109.821 99.7053 112.673 101.244C115.627 102.838 116.75 104.409 116.75 105.672H118Z" fill="#026ACC"/>
<circle cx="83" cy="42.1074" r="15.75" stroke="#026ACC" stroke-width="2.5"/>
<path fill-rule="evenodd" clip-rule="evenodd" d="M125.789 16.3303C124.875 14.0438 123.063 12.232 120.776 11.3172L119 10.6066L120.776 9.89597C123.063 8.9812 124.875 7.16941 125.789 4.88289L126.5 3.1066L127.211 4.88289C128.125 7.16941 129.937 8.9812 132.224 9.89596L134 10.6066L132.224 11.3172C129.937 12.232 128.125 14.0438 127.211 16.3303L126.5 18.1066L125.789 16.3303Z" stroke="#D9F0FF" stroke-width="2.5" stroke-linejoin="round"/>
<path fill-rule="evenodd" clip-rule="evenodd" d="M105.691 87.1074H105C100.582 87.1074 97 83.5257 97 79.1074C97 74.6891 100.582 71.1074 105 71.1074C105.029 71.1074 105.057 71.1076 105.085 71.1079C105.797 64.9113 110.86 60.1074 117 60.1074C123.472 60.1074 128.747 65.4441 128.991 72.1232C132.904 72.3762 136.348 76.1904 136.348 80.1675C136.348 83.433 133.933 87.1074 131.072 87.1074H111.178" fill="white"/>
<path d="M105.691 87.1074H105C100.582 87.1074 97 83.5257 97 79.1074C97 74.6891 100.582 71.1074 105 71.1074C105.029 71.1074 105.057 71.1076 105.085 71.1079C105.797 64.9113 110.86 60.1074 117 60.1074C123.472 60.1074 128.747 65.4441 128.991 72.1232C132.904 72.3762 136.348 76.1904 136.348 80.1675C136.348 83.433 133.933 87.1074 131.072 87.1074H111.178" stroke="#D9F0FF" stroke-width="2.5" stroke-linecap="round"/>
</svg>
