<svg width="16" height="16" viewBox="0 0 16 16" fill="none" xmlns="http://www.w3.org/2000/svg">
<path d="M7.33333 4.66732H8.66666V6.00065H7.33333V4.66732ZM7.33333 7.33398H8.66666V11.334H7.33333V7.33398ZM8 1.33398C4.32 1.33398 1.33333 4.32065 1.33333 8.00065C1.33333 11.6807 4.32 14.6673 8 14.6673C11.68 14.6673 14.6667 11.6807 14.6667 8.00065C14.6667 4.32065 11.68 1.33398 8 1.33398ZM8 13.334C5.06 13.334 2.66666 10.9407 2.66666 8.00065C2.66666 5.06065 5.06 2.66732 8 2.66732C10.94 2.66732 13.3333 5.06065 13.3333 8.00065C13.3333 10.9407 10.94 13.334 8 13.334Z" fill="#026ACC"/>
</svg>
