<svg width="165" height="36" viewBox="0 0 165 36" fill="none" xmlns="http://www.w3.org/2000/svg">
<g clip-path="url(#clip0_11000_32366)">
<g clip-path="url(#clip1_11000_32366)">
<path d="M18 36V32.7211C26.116 32.7211 32.7211 26.1186 32.7211 18C32.7211 9.88138 26.116 3.27893 18 3.27893C9.884 3.27893 3.27893 9.884 3.27893 18V23.5348H9.32789V18C9.32789 13.1393 13.2836 9.18362 18.1443 9.18362C23.005 9.18362 26.9607 13.1393 26.9607 18C26.9607 22.8607 23.005 26.8164 18.1443 26.8164H12.6094V35.8688H9.33051V26.8164H0V18C0 8.07403 8.07403 0 18 0C27.926 0 36 8.07403 36 18C36 27.926 27.926 36 18 36ZM12.6068 23.5348H18.1416C21.195 23.5348 23.6765 21.0507 23.6765 18C23.6765 14.9493 21.1924 12.4652 18.1416 12.4652C15.0909 12.4652 12.6068 14.9493 12.6068 18V23.5348Z" fill="black"/>
<path d="M43.3054 26.9348V6.88086H50.9834C52.2241 6.88086 53.3284 7.14317 54.2911 7.6678C55.2565 8.19243 56.0093 8.9479 56.5549 9.93157C57.0979 10.9153 57.3707 12.0957 57.3707 13.4702C57.3707 14.7109 57.1136 15.8205 56.5969 16.7937C56.0801 17.7669 55.3456 18.5329 54.3908 19.0863C53.436 19.6398 52.2792 19.9179 50.9256 19.9179H46.3981V26.9374H43.3054V26.9348ZM46.4007 17.1924H50.6686C51.6995 17.1924 52.5441 16.8672 53.2052 16.2192C53.8636 15.5713 54.1941 14.6532 54.1941 13.4702C54.1941 12.2085 53.8609 11.2458 53.192 10.5769C52.5231 9.90796 51.6916 9.57483 50.7001 9.57483H46.4034V17.1951L46.4007 17.1924Z" fill="black"/>
<path d="M64.5345 27.2778C63.2544 27.2778 62.1475 26.9762 61.211 26.3755C60.2745 25.7748 59.5532 24.9091 59.0469 23.7838C58.5406 22.6558 58.2888 21.3102 58.2888 19.7442C58.2888 18.1781 58.5511 16.7512 59.0758 15.6337C59.6004 14.5162 60.3454 13.6611 61.3107 13.0709C62.276 12.4781 63.3961 12.1816 64.6762 12.1816C65.5156 12.1816 66.2369 12.3338 66.8403 12.6407C67.441 12.9476 67.942 13.3332 68.3433 13.8001C68.7447 14.267 69.0411 14.7707 69.2326 15.3032V12.5253H72.1836V26.9342H69.2326V24.2979C69.0227 24.9091 68.6843 25.439 68.2148 25.8876C67.7452 26.3361 67.2023 26.6797 66.5806 26.9185C65.9589 27.1572 65.2769 27.2778 64.5319 27.2778H64.5345ZM65.2795 24.7832C66.1005 24.7832 66.8062 24.5602 67.399 24.1091C67.9918 23.6605 68.4456 23.0598 68.7604 22.3043C69.0752 21.5489 69.2326 20.6964 69.2326 19.7415C69.2326 18.7867 69.0752 17.8975 68.7604 17.1341C68.4456 16.3708 67.9866 15.7701 67.3859 15.3294C66.7852 14.8913 66.0638 14.671 65.2218 14.671C64.3798 14.671 63.64 14.8966 63.0577 15.3451C62.4754 15.7937 62.0347 16.3944 61.7409 17.1499C61.4445 17.9053 61.2976 18.7579 61.2976 19.7127C61.2976 20.6675 61.4445 21.5305 61.7409 22.3043C62.0373 23.0782 62.4806 23.6841 63.0734 24.1248C63.6663 24.5655 64.4007 24.7832 65.2795 24.7832Z" fill="black"/>
<path d="M81.2019 27.2776C79.5205 27.2776 78.3217 26.9156 77.6056 26.189C76.8895 25.4624 76.5301 24.3948 76.5301 22.9809V15.1613H73.8939V12.5251H74.5234C75.0769 12.5251 75.5018 12.4674 75.7983 12.3519C76.0947 12.2365 76.2993 12.0319 76.4147 11.7355C76.5301 11.4391 76.5878 11.0246 76.5878 10.4895V8.9707H79.4811V12.5513H83.0617V15.1587H79.4811V22.6635C79.4811 23.3901 79.6569 23.8964 80.011 24.1823C80.3651 24.4682 80.8452 24.6125 81.459 24.6125C81.6505 24.6125 81.8682 24.602 82.1174 24.5836C82.3666 24.5653 82.6053 24.5364 82.8335 24.4971V27.0468C82.5843 27.1228 82.3089 27.1806 82.002 27.2173C81.6951 27.2566 81.4301 27.275 81.1993 27.275L81.2019 27.2776Z" fill="black"/>
<path d="M85.4305 26.9348V6.88086H88.3815V15.0729C88.4576 14.787 88.6097 14.4775 88.8406 14.1417C89.0688 13.8086 89.3704 13.4938 89.7429 13.1974C90.1154 12.901 90.5692 12.657 91.1043 12.4655C91.6395 12.274 92.2507 12.1796 92.9379 12.1796C93.9872 12.1796 94.8869 12.3999 95.6319 12.838C96.3769 13.2787 96.9539 13.903 97.3658 14.7136C97.775 15.5267 97.9822 16.5052 97.9822 17.6489V26.9295H95.0312V18.0764C95.0312 16.8934 94.7689 16.033 94.2442 15.4979C93.7196 14.9628 92.9982 14.6952 92.0801 14.6952C91.2407 14.6952 90.543 14.8946 89.9895 15.2959C89.436 15.6972 89.0294 16.256 88.7724 16.9721C88.5153 17.6882 88.3868 18.525 88.3868 19.4798V26.9295H85.4357L85.4305 26.9348Z" fill="black"/>
<path d="M104.044 26.9343L99.1442 12.5254H102.352L105.991 24.8437H105.39L109.256 12.5254H112.236L116.103 24.8437H115.473L119.14 12.5254H122.12L117.278 26.9343H114.269L110.201 15.0174H111.174L107.048 26.9343H104.039H104.044Z" fill="black"/>
<path d="M128.912 27.2778C127.632 27.2778 126.525 26.9762 125.588 26.3755C124.652 25.7748 123.93 24.9091 123.424 23.7838C122.918 22.6558 122.666 21.3102 122.666 19.7442C122.666 18.1781 122.928 16.7512 123.453 15.6337C123.978 14.5162 124.722 13.6611 125.688 13.0709C126.653 12.4781 127.773 12.1816 129.053 12.1816C129.893 12.1816 130.614 12.3338 131.217 12.6407C131.818 12.9476 132.319 13.3332 132.72 13.8001C133.122 14.267 133.418 14.7707 133.61 15.3032V12.5253H136.561V26.9342H133.61V24.2979C133.4 24.9091 133.061 25.439 132.592 25.8876C132.122 26.3361 131.579 26.6797 130.958 26.9185C130.336 27.1572 129.654 27.2778 128.909 27.2778H128.912ZM129.657 24.7832C130.478 24.7832 131.183 24.5602 131.776 24.1091C132.369 23.6605 132.823 23.0598 133.138 22.3043C133.452 21.5489 133.61 20.6964 133.61 19.7415C133.61 18.7867 133.452 17.8975 133.138 17.1341C132.823 16.3708 132.364 15.7701 131.763 15.3294C131.162 14.8913 130.441 14.671 129.599 14.671C128.757 14.671 128.017 14.8966 127.435 15.3451C126.852 15.7937 126.412 16.3944 126.118 17.1499C125.822 17.9053 125.675 18.7579 125.675 19.7127C125.675 20.6675 125.822 21.5305 126.118 22.3043C126.414 23.0782 126.858 23.6841 127.451 24.1248C128.043 24.5655 128.778 24.7832 129.657 24.7832Z" fill="black"/>
<path d="M141.261 33.5224C140.878 33.5224 140.498 33.4935 140.115 33.4358C139.732 33.3781 139.446 33.3204 139.255 33.2627V30.713C139.428 30.7523 139.638 30.7786 139.884 30.7995C140.133 30.8179 140.362 30.8284 140.572 30.8284C141.049 30.8284 141.487 30.7182 141.888 30.4979C142.29 30.2775 142.662 29.8814 143.006 29.3096C143.349 28.7377 143.654 27.9141 143.921 26.8465L137.878 12.5215H141.057L145.469 23.4941L149.136 12.5215H152.286L146.529 27.9062C146.07 29.1863 145.603 30.2408 145.125 31.0723C144.648 31.9039 144.108 32.5203 143.507 32.919C142.906 33.3204 142.156 33.5197 141.259 33.5197L141.261 33.5224Z" fill="black"/>
<path d="M158.655 27.2792C157.47 27.2792 156.402 27.0588 155.447 26.6208C154.493 26.1827 153.742 25.5794 153.199 24.816C152.656 24.0527 152.384 23.2028 152.384 22.2663L155.392 22.2952C155.392 22.8303 155.555 23.2841 155.88 23.6566C156.205 24.0291 156.62 24.3019 157.126 24.4724C157.632 24.6455 158.181 24.7295 158.774 24.7295C159.747 24.7295 160.515 24.5773 161.079 24.2704C161.643 23.9661 161.924 23.4887 161.924 22.8382C161.924 22.3424 161.704 21.9752 161.266 21.7338C160.825 21.4951 160.258 21.3089 159.56 21.1751C158.863 21.0413 158.128 20.9076 157.354 20.7738C156.581 20.64 155.846 20.4354 155.148 20.1573C154.451 19.8819 153.884 19.4648 153.443 18.9113C153.003 18.3579 152.785 17.6129 152.785 16.6764C152.785 15.9131 152.984 15.1917 153.386 14.5123C153.787 13.8356 154.406 13.2768 155.248 12.8361C156.087 12.3981 157.168 12.1777 158.485 12.1777C159.613 12.1777 160.563 12.3168 161.336 12.5922C162.11 12.8702 162.729 13.227 163.199 13.6677C163.666 14.1084 164.007 14.5832 164.217 15.0999C164.426 15.6167 164.531 16.102 164.531 16.561H161.58C161.58 16.102 161.318 15.6823 160.793 15.2993C160.269 14.9163 159.49 14.7274 158.459 14.7274C157.486 14.7274 156.783 14.8901 156.352 15.2153C155.922 15.5406 155.707 15.9708 155.707 16.5033C155.707 16.923 155.875 17.2483 156.208 17.4765C156.541 17.7047 156.977 17.8883 157.512 18.0195C158.047 18.1533 158.642 18.2765 159.303 18.392C159.962 18.5074 160.618 18.649 161.266 18.8222C161.913 18.9953 162.506 19.234 163.041 19.5383C163.576 19.8452 164.009 20.2491 164.345 20.7554C164.678 21.2617 164.846 21.907 164.846 22.6887C164.846 23.5491 164.631 24.3203 164.201 25.0101C163.771 25.6974 163.099 26.2456 162.181 26.6575C161.266 27.0667 160.09 27.2739 158.658 27.2739L158.655 27.2792Z" fill="black"/>
</g>
</g>
<defs>
<clipPath id="clip0_11000_32366">
<rect width="164.843" height="36" fill="white"/>
</clipPath>
<clipPath id="clip1_11000_32366">
<rect width="164.843" height="36" fill="white"/>
</clipPath>
</defs>
</svg>
