<svg width="184" height="40" viewBox="0 0 184 40" fill="none" xmlns="http://www.w3.org/2000/svg">
<g clip-path="url(#clip0_11000_32542)">
<g clip-path="url(#clip1_11000_32542)">
<path d="M20 40V36.3567C29.0178 36.3567 36.3568 29.0207 36.3568 20C36.3568 10.9793 29.0178 3.64325 20 3.64325C10.9822 3.64325 3.64325 10.9822 3.64325 20V26.1498H10.3643V20C10.3643 14.5992 14.7595 10.204 20.1603 10.204C25.5611 10.204 29.9563 14.5992 29.9563 20C29.9563 25.4008 25.5611 29.796 20.1603 29.796H14.0105V39.8543H10.3672V29.796H0V20C0 8.97115 8.97115 0 20 0C31.0289 0 40 8.97115 40 20C40 31.0289 31.0289 40 20 40ZM14.0076 26.1498H20.1574C23.55 26.1498 26.3072 23.3897 26.3072 20C26.3072 16.6103 23.5471 13.8502 20.1574 13.8502C16.7677 13.8502 14.0076 16.6103 14.0076 20V26.1498Z" fill="white"/>
<path d="M48.1172 29.9286V7.64648H56.6482C58.0268 7.64648 59.2539 7.93794 60.3235 8.52087C61.3961 9.10379 62.2326 9.94319 62.8388 11.0362C63.4422 12.1291 63.7453 13.4407 63.7453 14.968C63.7453 16.3466 63.4597 17.5794 62.8855 18.6608C62.3113 19.7421 61.4952 20.5931 60.4343 21.2081C59.3734 21.8231 58.088 22.1321 56.5841 22.1321H51.5535V29.9315H48.1172V29.9286ZM51.5564 19.1038H56.2985C57.4439 19.1038 58.3824 18.7424 59.1169 18.0225C59.8485 17.3026 60.2157 16.2825 60.2157 14.968C60.2157 13.566 59.8455 12.4964 59.1023 11.7532C58.3591 11.0099 57.4352 10.6398 56.3335 10.6398H51.5593V19.1067L51.5564 19.1038Z" fill="white"/>
<path d="M71.7051 30.3126C70.2828 30.3126 69.0528 29.9774 68.0123 29.31C66.9718 28.6425 66.1703 27.6807 65.6078 26.4303C65.0452 25.1771 64.7654 23.6819 64.7654 21.9419C64.7654 20.2018 65.0569 18.6163 65.6398 17.3747C66.2227 16.1331 67.0505 15.1829 68.1231 14.5271C69.1956 13.8684 70.4402 13.5391 71.8625 13.5391C72.7952 13.5391 73.5967 13.7081 74.267 14.0491C74.9345 14.3901 75.4912 14.8186 75.9371 15.3374C76.383 15.8562 76.7124 16.4158 76.9252 17.0074V13.9209H80.2041V29.9308H76.9252V27.0016C76.692 27.6807 76.316 28.2695 75.7943 28.7679C75.2726 29.2663 74.6693 29.6481 73.9785 29.9133C73.2877 30.1785 72.5299 30.3126 71.7022 30.3126H71.7051ZM72.5329 27.5408C73.4451 27.5408 74.2292 27.2931 74.8879 26.7918C75.5466 26.2934 76.0508 25.6259 76.4005 24.7865C76.7503 23.9471 76.9252 22.9999 76.9252 21.9389C76.9252 20.878 76.7503 19.89 76.4005 19.0418C76.0508 18.1937 75.5407 17.5262 74.8733 17.0366C74.2058 16.5498 73.4043 16.305 72.4687 16.305C71.5331 16.305 70.7112 16.5557 70.0642 17.0541C69.4171 17.5525 68.9275 18.2199 68.6011 19.0593C68.2717 19.8987 68.1085 20.846 68.1085 21.9069C68.1085 22.9678 68.2717 23.9267 68.6011 24.7865C68.9304 25.6463 69.423 26.3196 70.0817 26.8092C70.7404 27.2989 71.5565 27.5408 72.5329 27.5408Z" fill="white"/>
<path d="M90.2244 30.3117C88.3562 30.3117 87.0242 29.9095 86.2285 29.1021C85.4328 28.2948 85.0335 27.1086 85.0335 25.5376V16.8492H82.1044V13.92H82.8039C83.4189 13.92 83.891 13.8559 84.2204 13.7276C84.5497 13.5994 84.7771 13.372 84.9053 13.0427C85.0335 12.7133 85.0977 12.2528 85.0977 11.6583V9.9707H88.3125V13.9491H92.2909V16.8462H88.3125V25.1849C88.3125 25.9923 88.5077 26.5548 88.9012 26.8725C89.2947 27.1902 89.8281 27.3505 90.5101 27.3505C90.7228 27.3505 90.9648 27.3388 91.2416 27.3184C91.5185 27.298 91.7838 27.266 92.0373 27.2222V30.0552C91.7604 30.1397 91.4544 30.2039 91.1134 30.2447C90.7724 30.2884 90.478 30.3088 90.2215 30.3088L90.2244 30.3117Z" fill="white"/>
<path d="M94.9228 29.9286V7.64648H98.2017V16.7488C98.2862 16.4311 98.4553 16.0872 98.7118 15.7141C98.9653 15.3439 99.3005 14.9942 99.7144 14.6648C100.128 14.3355 100.632 14.0644 101.227 13.8517C101.822 13.6389 102.501 13.534 103.264 13.534C104.43 13.534 105.43 13.7788 106.258 14.2655C107.085 14.7552 107.727 15.4489 108.184 16.3495C108.639 17.253 108.869 18.3402 108.869 19.6109V29.9228H105.59V20.086C105.59 18.7715 105.299 17.8155 104.716 17.221C104.133 16.6264 103.331 16.3291 102.311 16.3291C101.379 16.3291 100.603 16.5506 99.9884 16.9965C99.3734 17.4425 98.9216 18.0633 98.636 18.859C98.3504 19.6546 98.2076 20.5844 98.2076 21.6453V29.9228H94.9286L94.9228 29.9286Z" fill="white"/>
<path d="M115.605 29.9298L110.16 13.9199H113.725L117.767 27.6069H117.1L121.396 13.9199H124.707L129.003 27.6069H128.304L132.378 13.9199H135.689L130.309 29.9298H126.966L122.445 16.6888H123.527L118.942 29.9298H115.599H115.605Z" fill="white"/>
<path d="M143.235 30.3126C141.813 30.3126 140.583 29.9774 139.542 29.31C138.502 28.6425 137.7 27.6807 137.138 26.4303C136.575 25.1771 136.296 23.6819 136.296 21.9419C136.296 20.2018 136.587 18.6163 137.17 17.3747C137.753 16.1331 138.581 15.1829 139.653 14.5271C140.726 13.8684 141.97 13.5391 143.393 13.5391C144.325 13.5391 145.127 13.7081 145.797 14.0491C146.465 14.3901 147.021 14.8186 147.467 15.3374C147.913 15.8562 148.243 16.4158 148.455 17.0074V13.9209H151.734V29.9308H148.455V27.0016C148.222 27.6807 147.846 28.2695 147.324 28.7679C146.803 29.2663 146.199 29.6481 145.509 29.9133C144.818 30.1785 144.06 30.3126 143.232 30.3126H143.235ZM144.063 27.5408C144.975 27.5408 145.759 27.2931 146.418 26.7918C147.077 26.2934 147.581 25.6259 147.931 24.7865C148.28 23.9471 148.455 22.9999 148.455 21.9389C148.455 20.878 148.28 19.89 147.931 19.0418C147.581 18.1937 147.071 17.5262 146.403 17.0366C145.736 16.5498 144.934 16.305 143.999 16.305C143.063 16.305 142.241 16.5557 141.594 17.0541C140.947 17.5525 140.458 18.2199 140.131 19.0593C139.802 19.8987 139.639 20.846 139.639 21.9069C139.639 22.9678 139.802 23.9267 140.131 24.7865C140.461 25.6463 140.953 26.3196 141.612 26.8092C142.271 27.2989 143.087 27.5408 144.063 27.5408Z" fill="white"/>
<path d="M156.957 37.2464C156.532 37.2464 156.109 37.2144 155.683 37.1502C155.258 37.0861 154.94 37.022 154.727 36.9579V34.1249C154.92 34.1686 155.153 34.1977 155.427 34.2211C155.704 34.2415 155.957 34.2531 156.191 34.2531C156.721 34.2531 157.208 34.1307 157.654 33.8859C158.1 33.641 158.514 33.2009 158.895 32.5656C159.277 31.9302 159.615 31.015 159.913 29.8287L153.197 13.9121H156.73L161.632 26.1039L165.707 13.9121H169.207L162.81 31.0062C162.3 32.4286 161.781 33.6002 161.25 34.5242C160.72 35.4481 160.12 36.133 159.452 36.5761C158.785 37.022 157.951 37.2435 156.954 37.2435L156.957 37.2464Z" fill="white"/>
<path d="M176.284 30.3106C174.966 30.3106 173.78 30.0658 172.719 29.579C171.658 29.0923 170.825 28.422 170.222 27.5738C169.618 26.7257 169.315 25.7813 169.315 24.7408L172.658 24.7729C172.658 25.3674 172.839 25.8717 173.2 26.2855C173.562 26.6994 174.022 27.0025 174.585 27.192C175.147 27.3844 175.756 27.4776 176.415 27.4776C177.496 27.4776 178.35 27.3086 178.977 26.9676C179.604 26.6295 179.915 26.099 179.915 25.3762C179.915 24.8253 179.671 24.4173 179.184 24.1491C178.694 23.8839 178.065 23.677 177.289 23.5283C176.514 23.3797 175.698 23.231 174.838 23.0824C173.978 22.9338 173.162 22.7064 172.387 22.3975C171.612 22.0914 170.982 21.628 170.493 21.013C170.003 20.3981 169.761 19.5703 169.761 18.5298C169.761 17.6816 169.983 16.8801 170.428 16.1252C170.874 15.3733 171.562 14.7525 172.498 14.2628C173.43 13.7761 174.631 13.5312 176.094 13.5312C177.348 13.5312 178.403 13.6857 179.263 13.9918C180.122 14.3007 180.81 14.6971 181.332 15.1867C181.851 15.6764 182.23 16.2039 182.463 16.7781C182.696 17.3523 182.813 17.8915 182.813 18.4016H179.534C179.534 17.8915 179.242 17.4252 178.659 16.9996C178.076 16.5741 177.211 16.3642 176.065 16.3642C174.984 16.3642 174.203 16.5449 173.725 16.9064C173.247 17.2678 173.008 17.7458 173.008 18.3374C173.008 18.8038 173.194 19.1652 173.565 19.4187C173.935 19.6723 174.419 19.8763 175.013 20.0221C175.608 20.1707 176.269 20.3077 177.004 20.4359C177.735 20.5642 178.464 20.7216 179.184 20.9139C179.904 21.1063 180.563 21.3715 181.157 21.7096C181.752 22.0506 182.233 22.4995 182.606 23.062C182.976 23.6245 183.162 24.3415 183.162 25.2101C183.162 26.166 182.923 27.0229 182.445 27.7895C181.967 28.5531 181.221 29.1623 180.201 29.6199C179.184 30.0745 177.878 30.3048 176.287 30.3048L176.284 30.3106Z" fill="white"/>
</g>
</g>
<defs>
<clipPath id="clip0_11000_32542">
<rect width="183.159" height="40" fill="white"/>
</clipPath>
<clipPath id="clip1_11000_32542">
<rect width="183.159" height="40" fill="white"/>
</clipPath>
</defs>
</svg>
