<svg width="20" height="20" viewBox="0 0 20 20" fill="none" xmlns="http://www.w3.org/2000/svg">
<path d="M9.16666 2.64951V17.3495C9.16666 17.8828 8.675 18.2828 8.15833 18.1662C4.43333 17.3328 1.66666 13.9912 1.66666 9.99951C1.66666 6.00785 4.43333 2.66618 8.15833 1.83285C8.675 1.71618 9.16666 2.11618 9.16666 2.64951ZM10.8583 2.64951V8.32451C10.8583 8.78285 11.2333 9.15785 11.6917 9.15785H17.35C17.8833 9.15785 18.2833 8.66618 18.1667 8.14118C17.4583 5.00785 15 2.54118 11.875 1.83285C11.35 1.71618 10.8583 2.11618 10.8583 2.64951ZM10.8583 11.6745V17.3495C10.8583 17.8828 11.35 18.2828 11.875 18.1662C15.0083 17.4578 17.4667 14.9828 18.175 11.8495C18.2917 11.3328 17.8833 10.8328 17.3583 10.8328H11.7C11.2333 10.8412 10.8583 11.2162 10.8583 11.6745Z" fill="#026ACC"/>
</svg>
