<svg width="20" height="20" viewBox="0 0 20 20" fill="none" xmlns="http://www.w3.org/2000/svg">
<path d="M15.8333 6.66732L12.5 10.0007H15C15 12.759 12.7583 15.0007 10 15.0007C9.15834 15.0007 8.35833 14.7923 7.66667 14.4173L6.45 15.634C7.475 16.284 8.69167 16.6673 10 16.6673C13.6833 16.6673 16.6667 13.684 16.6667 10.0007H19.1667L15.8333 6.66732ZM5 10.0007C5 7.24232 7.24167 5.00065 10 5.00065C10.8417 5.00065 11.6417 5.20898 12.3333 5.58398L13.55 4.36732C12.525 3.71732 11.3083 3.33398 10 3.33398C6.31667 3.33398 3.33334 6.31732 3.33334 10.0007H0.833336L4.16667 13.334L7.5 10.0007H5Z" fill="#026ACC"/>
</svg>
