<svg width="48" height="48" viewBox="0 0 48 48" fill="none" xmlns="http://www.w3.org/2000/svg">
<path d="M41.4347 6.56408C37.2023 2.33103 31.5748 0 25.5891 0H24.7989V23.1987H47.9976V22.4085C47.9976 16.4234 45.6666 10.7965 41.4347 6.56408ZM30.9592 13.7102C30.9592 12.971 31.5604 12.3698 32.2996 12.3698C33.0388 12.3698 33.64 12.971 33.64 13.7102C33.64 14.5586 33.2242 15.7532 32.2996 15.7532C31.2868 15.7532 30.9592 14.3768 30.9592 13.7102ZM30.5752 17.5796H34.0216C34.8964 17.5796 35.6086 18.215 35.6086 18.9956V21.6183H28.9888V18.9956C28.9888 18.215 29.6998 17.5796 30.5752 17.5796ZM39.1595 13.7102C39.1595 12.971 39.7607 12.3698 40.4999 12.3698C41.2391 12.3698 41.8403 12.971 41.8403 13.7102C41.8403 14.3768 41.5127 15.7532 40.4999 15.7532C39.5753 15.7532 39.1595 14.5586 39.1595 13.7102ZM38.7779 17.5796H42.2213C43.0979 17.5796 43.8107 18.215 43.8107 18.9956V21.6183H37.1885V18.9956C37.1885 18.215 37.9013 17.5796 38.7779 17.5796ZM45.3912 21.6183V18.9956C45.3912 17.5184 44.2542 16.2884 42.7637 16.0442C43.1957 15.377 43.4201 14.5316 43.4201 13.7102C43.4201 12.0997 42.1097 10.7893 40.4993 10.7893C38.8889 10.7893 37.5785 12.0997 37.5785 13.7102C37.5785 14.5316 37.8023 15.377 38.2349 16.0442C37.5083 16.163 36.8663 16.5164 36.3983 17.0192C35.9308 16.517 35.2894 16.1636 34.5634 16.0442C34.996 15.377 35.2198 14.531 35.2198 13.7102C35.2198 12.0997 33.9094 10.7893 32.299 10.7893C30.6886 10.7893 29.3782 12.0997 29.3782 13.7102C29.3782 14.5316 29.602 15.3764 30.034 16.0442C28.5442 16.2872 27.4071 17.5178 27.4071 18.9962V21.6189H26.3781V1.59482C37.2371 2.00162 45.9954 10.7599 46.4016 21.6183H45.39H45.3912ZM23.1987 3.97025V3.18004H22.4085C16.4228 3.18004 10.7953 5.51167 6.56288 9.74472C2.33043 13.9778 0 19.6058 0 25.5915C0 31.5772 2.33103 37.2035 6.56288 41.4359C10.7953 45.669 16.4228 48 22.4085 48C28.3942 48 34.0216 45.669 38.2541 41.4359C42.4865 37.2035 44.817 31.576 44.817 25.5915V24.8013H23.1981L23.1987 3.97025ZM21.6183 4.77546V25.2645L20.3397 26.5431C19.4912 24.9321 17.7308 23.8587 15.737 23.8587H15.407C16.6304 22.7037 17.2718 20.8257 17.2718 19.019C17.2718 16.4348 15.1688 14.3318 12.5846 14.3318C10.0003 14.3318 7.8973 16.4342 7.8973 19.019C7.8973 20.8263 8.53871 22.7037 9.76212 23.8587H9.43512C6.60068 23.8587 4.29425 26.0241 4.29425 28.6858V35.8636C2.56743 32.8306 1.57982 29.3248 1.57982 25.5921C1.57982 14.3702 10.4977 5.19186 21.6183 4.77546ZM12.4328 34.45L11.4895 33.6808L12.5846 26.6391L13.6154 33.2674L12.4328 34.45ZM12.5846 23.4045C10.4413 23.4045 9.47772 20.8395 9.47772 19.0178C9.47772 17.3048 10.8715 15.911 12.5846 15.911C14.2976 15.911 15.6914 17.3048 15.6914 19.0178C15.6914 20.7135 14.8478 23.4045 12.5846 23.4045ZM13.1192 25.4385C13.124 25.4385 13.1282 25.4385 13.133 25.4385C13.1342 25.4643 13.1342 25.4907 13.133 25.5135C13.1048 25.5447 13.064 25.5777 13.0118 25.6011C12.8042 25.6941 12.653 25.8687 12.5852 26.0745C12.5174 25.8687 12.3656 25.6941 12.1586 25.6011C12.1058 25.5771 12.0644 25.5441 12.0373 25.5141C12.0361 25.4913 12.0356 25.4643 12.0373 25.4385C12.0416 25.4385 12.0463 25.4385 12.0511 25.4385H13.121H13.1192ZM14.999 31.8838L14.1914 26.6889C14.3282 26.5605 14.4458 26.4129 14.5388 26.2503C14.6546 26.0445 14.7158 25.7469 14.7122 25.4385H15.737C17.2946 25.4385 18.6866 26.4057 19.139 27.7437L14.9996 31.8832L14.999 31.8838ZM5.87407 38.2433V28.6852C5.87407 26.8947 7.47129 25.4385 9.43452 25.4385H10.4563C10.4533 25.7475 10.5151 26.0469 10.6321 26.2551C10.7233 26.4147 10.8403 26.5611 10.9765 26.6889L9.85692 33.886C9.81372 34.1632 9.92112 34.4428 10.1383 34.6198L11.3083 35.5732L9.35652 37.5251V31.465C9.35652 31.0288 9.00251 30.6748 8.56631 30.6748C8.1301 30.6748 7.7761 31.0288 7.7761 31.465V39.1055L7.13949 39.7421C6.69488 39.2627 6.27248 38.7629 5.87407 38.2433ZM16.7084 45.6276V40.9391C16.7084 39.9425 17.6102 39.1313 18.7178 39.1313H22.7745C23.8827 39.1313 24.7839 39.9425 24.7839 40.9391V46.284C24.0039 46.3728 23.2113 46.4202 22.4079 46.4202C20.4327 46.4202 18.5204 46.1436 16.7084 45.6276ZM34.4398 42.5831C32.0662 44.2686 29.326 45.4704 26.3643 46.0422V40.9391C26.3643 39.9425 27.2655 39.1313 28.3738 39.1313H32.4304C33.5386 39.1313 34.4398 39.9425 34.4398 40.9391V42.5831ZM23.1669 37.5719C23.4363 37.2059 23.6451 36.7829 23.7915 36.3323C24.2757 36.7097 24.8715 36.9395 25.5741 36.9395C26.2767 36.9395 26.8725 36.7103 27.3567 36.3329C27.5031 36.7835 27.7119 37.2065 27.9813 37.5719C27.0105 37.6721 26.1555 38.1389 25.5741 38.8223C24.9927 38.1389 24.1383 37.6721 23.1669 37.5719ZM30.4036 37.2599C29.2162 37.2599 28.6822 35.7718 28.6822 34.7158C28.6822 33.7684 29.4544 32.9974 30.4036 32.9974C31.3528 32.9974 32.122 33.7684 32.122 34.7158C32.122 35.5456 31.702 37.2599 30.4036 37.2599ZM25.5741 35.359C24.3891 35.359 23.8557 33.8728 23.8557 32.8174C23.8557 31.8682 24.6267 31.0966 25.5741 31.0966C26.5215 31.0966 27.2925 31.8688 27.2925 32.8174C27.2925 33.6466 26.8725 35.359 25.5741 35.359ZM22.4661 34.7158C22.4661 35.7724 21.9321 37.2599 20.7453 37.2599C19.4468 37.2599 19.0268 35.5456 19.0268 34.7158C19.0268 33.7684 19.7978 32.9974 20.7453 32.9974C21.6927 32.9974 22.4661 33.7684 22.4661 34.7158ZM43.2215 26.3817C42.9983 32.3494 40.2509 37.6817 36.0203 41.3429V40.9391C36.0203 39.1961 34.6186 37.7567 32.8234 37.5719C33.4012 36.7859 33.7024 35.7346 33.7024 34.7158C33.7024 32.8972 32.2228 31.417 30.4036 31.417C29.7946 31.417 29.2246 31.5832 28.7344 31.8718C28.327 30.511 27.0645 29.5162 25.5747 29.5162C24.0849 29.5162 22.8225 30.511 22.4151 31.8718C21.9249 31.5832 21.3543 31.417 20.7459 31.417C18.9272 31.417 17.447 32.8966 17.447 34.7158C17.447 35.7346 17.7476 36.7859 18.326 37.5719C16.5308 37.7573 15.1292 39.1967 15.1292 40.9391V45.1062C12.5612 44.145 10.2325 42.6911 8.2579 40.8599L20.5731 28.5448C20.5731 28.5448 20.5755 28.5424 20.5767 28.5412L22.7361 26.3817H43.2227H43.2215Z" fill="#690133"/>
</svg>
