<svg width="20" height="20" viewBox="0 0 20 20" fill="none" xmlns="http://www.w3.org/2000/svg">
<g clip-path="url(#clip0_142_9010)">
<path d="M14.3478 0.992266C13.0332 0.356562 11.5582 0 10 0C8.44183 0 6.96691 0.356562 5.65222 0.992266L4.78265 10L5.65222 19.0077C6.96691 19.6434 8.44183 20 10 20C11.5582 20 13.0332 19.6434 14.3478 19.0077L15.2174 10L14.3478 0.992266Z" fill="#FFDA44"/>
<path d="M9.9999 6.52173L10.8632 9.17876H13.6572L11.3969 10.8211L12.2603 13.4782L9.9999 11.836L7.73955 13.4782L8.60303 10.8211L6.34271 9.17876H9.13658L9.9999 6.52173Z" fill="#496E2D"/>
<path d="M5.65222 0.992266C2.3073 2.60973 0 6.03543 0 10C0 13.9646 2.3073 17.3903 5.65222 19.0077V0.992266Z" fill="#496E2D"/>
<path d="M14.3478 0.992266V19.0077C17.6928 17.3903 20 13.9646 20 10C20 6.03543 17.6928 2.60973 14.3478 0.992266Z" fill="#D80027"/>
</g>
<rect x="0.5" y="0.5" width="19" height="19" rx="9.5" stroke="#185EA5"/>
<defs>
<clipPath id="clip0_142_9010">
<rect width="20" height="20" rx="10" fill="white"/>
</clipPath>
</defs>
</svg>
