<svg width="20" height="20" viewBox="0 0 20 20" fill="none" xmlns="http://www.w3.org/2000/svg">
<path d="M7.50004 11.6667C7.73615 11.6667 7.93421 11.5867 8.09421 11.4267C8.25365 11.2672 8.33337 11.0694 8.33337 10.8333V10C8.33337 9.76389 8.41337 9.56583 8.57337 9.40583C8.73282 9.24639 8.9306 9.16667 9.16671 9.16667H10.8334V9.83333C10.8334 10.0278 10.9167 10.1597 11.0834 10.2292C11.25 10.2986 11.4028 10.2639 11.5417 10.125L13.0417 8.625C13.0695 8.59722 13.1112 8.5 13.1667 8.33333C13.1667 8.30556 13.125 8.20833 13.0417 8.04167L11.5417 6.54167C11.4028 6.40278 11.25 6.36806 11.0834 6.4375C10.9167 6.50694 10.8334 6.63889 10.8334 6.83333V7.5H9.16671C8.47226 7.5 7.88198 7.74306 7.39587 8.22917C6.90976 8.71528 6.66671 9.30556 6.66671 10V10.8333C6.66671 11.0694 6.74671 11.2672 6.90671 11.4267C7.06615 11.5867 7.26393 11.6667 7.50004 11.6667ZM3.33337 15C2.87504 15 2.48282 14.8369 2.15671 14.5108C1.83004 14.1842 1.66671 13.7917 1.66671 13.3333V4.16667C1.66671 3.70833 1.83004 3.31583 2.15671 2.98917C2.48282 2.66306 2.87504 2.5 3.33337 2.5H16.6667C17.125 2.5 17.5175 2.66306 17.8442 2.98917C18.1703 3.31583 18.3334 3.70833 18.3334 4.16667V13.3333C18.3334 13.7917 18.1703 14.1842 17.8442 14.5108C17.5175 14.8369 17.125 15 16.6667 15H3.33337ZM3.33337 13.3333H16.6667V4.16667H3.33337V13.3333ZM1.66671 17.5C1.4306 17.5 1.23282 17.42 1.07337 17.26C0.913374 17.1006 0.833374 16.9028 0.833374 16.6667C0.833374 16.4306 0.913374 16.2328 1.07337 16.0733C1.23282 15.9133 1.4306 15.8333 1.66671 15.8333H18.3334C18.5695 15.8333 18.7673 15.9133 18.9267 16.0733C19.0867 16.2328 19.1667 16.4306 19.1667 16.6667C19.1667 16.9028 19.0867 17.1006 18.9267 17.26C18.7673 17.42 18.5695 17.5 18.3334 17.5H1.66671Z" fill="#026ACC"/>
</svg>
