<svg width="20" height="20" viewBox="0 0 20 20" fill="none" xmlns="http://www.w3.org/2000/svg">
<path d="M7.5 16.666H5C4.08333 16.666 3.33301 15.9157 3.33301 14.999C3.33301 14.0824 4.08333 13.332 5 13.332H7.5V16.666ZM15 13.332C15.9167 13.332 16.667 14.0824 16.667 14.999C16.667 15.9157 15.9167 16.666 15 16.666H8.33301V13.332H15ZM10 8.33203V11.666H5C4.08333 11.666 3.33301 10.9157 3.33301 9.99902C3.33301 9.08236 4.08333 8.33203 5 8.33203H10ZM15 8.33203C15.9167 8.33203 16.667 9.08236 16.667 9.99902C16.667 10.9157 15.9167 11.666 15 11.666H10.833V8.33203H15ZM12.5 6.66602H5C4.08333 6.66602 3.33301 5.91569 3.33301 4.99902C3.33301 4.08236 4.08333 3.33203 5 3.33203H12.5V6.66602ZM15 3.33203C15.9167 3.33203 16.667 4.08236 16.667 4.99902C16.667 5.91569 15.9167 6.66602 15 6.66602H13.333V3.33203H15Z" fill="#026ACC"/>
</svg>
